<svg width="683px" height="131.6px" xmlns="http://www.w3.org/2000/svg" viewBox="-91.48593749999998 9.200000000000003 682.971875 131.6" style="background: rgba(0, 0, 0, 0)" preserveAspectRatio="xMidYMid"><defs><linearGradient id="editing-outline-gradient" x1="-0.37461970713939574" x2="1.3746197071393957" y1="0.015190379753662941" y2="0.984809620246337"><stop offset="0" stop-color="#ee4208"></stop><stop offset="1" stop-color="#4139ff"></stop></linearGradient><filter id="editing-outline" x="-100%" y="-100%" width="300%" height="300%"><feMorphology in="SourceGraphic" operator="dilate" radius="1" result="outline"></feMorphology><feComposite operator="out" in="outline" in2="SourceAlpha"></feComposite></filter></defs><g filter="url(#editing-outline)"><g transform="matrix(1.3,0,0,1.5,-56.1,160.8)"><path d="M 5.3 -87.5 L 5.3 -41.4 L -2.4 -41.4 L -2.4 -87.5 L 5.3 -87.5 Z M 16.4 -76.7 L 23.2 -76.7 L 24 -73 L 24 -41.4 L 16.4 -41.4 L 16.4 -76.7 Z M 52.7 -77 L 52.7 -77 L 52.7 -77 Q 54.8 -77 56.7 -76.2 L 56.7 -76.2 L 56.7 -76.2 Q 58.6 -75.4 60 -73.8 L 60 -73.8 L 60 -73.8 Q 61.4 -72.2 62.2 -70.1 L 62.2 -70.1 L 62.2 -70.1 Q 63 -67.9 63 -65.4 L 63 -65.4 L 63 -41.4 L 55.5 -41.4 L 55.5 -60.6 L 55.5 -60.6 Q 55.5 -62.7 55.4 -64.6 L 55.4 -64.6 L 55.4 -64.6 Q 55.4 -66.5 55 -68 L 55 -68 L 55 -68 Q 54.6 -69.5 53.8 -70.4 L 53.8 -70.4 L 53.8 -70.4 Q 53 -71.2 51.2 -71.2 L 51.2 -71.2 L 51.2 -71.2 Q 50.8 -71.2 49.3 -71 L 49.3 -71 L 49.3 -71 Q 47.9 -70.9 46 -70 L 46 -70 L 46 -74.9 L 46 -74.9 Q 47.7 -75.9 49.5 -76.5 L 49.5 -76.5 L 49.5 -76.5 Q 51.2 -77 52.7 -77 Z M 41.9 -72.2 L 41.9 -72.2 L 41.9 -72.2 Q 42.6 -71.1 43 -69.8 L 43 -69.8 L 43 -69.8 Q 43.3 -68.5 43.4 -67.2 L 43.4 -67.2 L 43.4 -67.2 Q 43.5 -65.8 43.5 -64.3 L 43.5 -64.3 L 43.5 -64.3 Q 43.5 -62.9 43.5 -61.2 L 43.5 -61.2 L 43.5 -41.4 L 35.9 -41.4 L 35.9 -60.6 L 35.9 -60.6 Q 35.9 -62.7 35.9 -64.6 L 35.9 -64.6 L 35.9 -64.6 Q 35.9 -66.5 35.5 -68 L 35.5 -68 L 35.5 -68 Q 35.1 -69.5 34.3 -70.4 L 34.3 -70.4 L 34.3 -70.4 Q 33.4 -71.2 31.7 -71.2 L 31.7 -71.2 L 31.7 -71.2 Q 31 -71.2 29.5 -70.9 L 29.5 -70.9 L 29.5 -70.9 Q 28 -70.7 26.6 -70 L 26.6 -70 L 26.6 -74.9 L 26.6 -74.9 Q 28.1 -75.8 29.8 -76.4 L 29.8 -76.4 L 29.8 -76.4 Q 31.5 -76.9 33.2 -76.9 L 33.2 -76.9 L 33.2 -76.9 Q 36.1 -76.9 38 -75.7 L 38 -75.7 L 38 -75.7 Q 40 -74.5 41.9 -72.2 Z M 79.8 -52 L 79.8 -52 L 79.8 -52 Q 79.8 -49.2 81 -47.9 L 81 -47.9 L 81 -47.9 Q 82.1 -46.5 84.3 -46.2 L 84.3 -46.2 L 84.3 -41.2 L 84.3 -41.2 Q 84.1 -41.1 83.5 -41.1 L 83.5 -41.1 L 83.5 -41.1 Q 81.4 -41.1 79.4 -41.7 L 79.4 -41.7 L 79.4 -41.7 Q 77.5 -42.2 76 -43.5 L 76 -43.5 L 76 -43.5 Q 74.5 -44.7 73.6 -46.8 L 73.6 -46.8 L 73.6 -46.8 Q 72.8 -48.9 72.8 -51.9 L 72.8 -51.9 L 72.8 -51.9 Q 72.8 -54.7 74 -56.8 L 74 -56.8 L 74 -56.8 Q 75.2 -58.9 77.1 -60.3 L 77.1 -60.3 L 77.1 -60.3 Q 79 -61.6 81.5 -62.3 L 81.5 -62.3 L 81.5 -62.3 Q 83.9 -62.9 86.4 -62.9 L 86.4 -62.9 L 89.1 -62.9 L 89.1 -58.5 L 87.8 -58.5 L 87.8 -58.5 Q 86.5 -58.5 85.1 -58.2 L 85.1 -58.2 L 85.1 -58.2 Q 83.8 -58 82.6 -57.3 L 82.6 -57.3 L 82.6 -57.3 Q 81.4 -56.6 80.6 -55.3 L 80.6 -55.3 L 80.6 -55.3 Q 79.8 -54 79.8 -52 Z M 99.3 -52.4 L 99.3 -51.9 L 99.3 -51.9 Q 99.3 -51.4 99.3 -50.4 L 99.3 -50.4 L 99.3 -50.4 Q 99.4 -49.4 99.6 -48.4 L 99.6 -48.4 L 99.6 -48.4 Q 99.8 -47.4 100.2 -46.6 L 100.2 -46.6 L 100.2 -46.6 Q 100.6 -45.8 101.3 -45.5 L 101.3 -45.5 L 99.3 -41.4 L 99.3 -41.4 Q 98.5 -41.4 97.5 -41.7 L 97.5 -41.7 L 97.5 -41.7 Q 96.6 -42.1 95.8 -42.8 L 95.8 -42.8 L 95.8 -42.8 Q 95 -43.5 94.4 -44.3 L 94.4 -44.3 L 94.4 -44.3 Q 93.8 -45.2 93.5 -46.2 L 93.5 -46.2 L 93.5 -46.2 Q 92.8 -44.6 91 -43.4 L 91 -43.4 L 91 -43.4 Q 89.1 -42.2 86.9 -41.6 L 86.9 -41.6 L 86.9 -46.4 L 86.9 -46.4 Q 88.4 -46.7 89.6 -47.6 L 89.6 -47.6 L 89.6 -47.6 Q 90.8 -48.5 91.7 -49.7 L 91.7 -49.7 L 91.7 -62.9 L 91.7 -62.9 Q 91.7 -66 91.4 -67.8 L 91.4 -67.8 L 91.4 -67.8 Q 91.1 -69.6 90.3 -70.4 L 90.3 -70.4 L 90.3 -70.4 Q 89.6 -71.3 88.5 -71.5 L 88.5 -71.5 L 88.5 -71.5 Q 87.4 -71.7 85.9 -71.7 L 85.9 -71.7 L 85.9 -71.7 Q 84.5 -71.7 83.3 -71.4 L 83.3 -71.4 L 83.3 -71.4 Q 82.1 -71 81 -70.6 L 81 -70.6 L 81 -70.6 Q 80 -70.1 79.2 -69.5 L 79.2 -69.5 L 79.2 -69.5 Q 78.5 -69 78.1 -68.7 L 78.1 -68.7 L 75.3 -73 L 75.3 -73 Q 75.9 -73.7 77.1 -74.4 L 77.1 -74.4 L 77.1 -74.4 Q 78.4 -75.1 80 -75.7 L 80 -75.7 L 80 -75.7 Q 81.6 -76.2 83.5 -76.6 L 83.5 -76.6 L 83.5 -76.6 Q 85.5 -76.9 87.5 -76.9 L 87.5 -76.9 L 87.5 -76.9 Q 89.4 -76.9 91.2 -76.5 L 91.2 -76.5 L 91.2 -76.5 Q 93 -76.2 94.4 -75.3 L 94.4 -75.3 L 94.4 -75.3 Q 95.9 -74.4 97 -72.9 L 97 -72.9 L 97 -72.9 Q 98.1 -71.5 98.5 -69.3 L 98.5 -69.3 L 98.5 -69.3 Q 99 -67.1 99.1 -64.9 L 99.1 -64.9 L 99.1 -64.9 Q 99.3 -62.7 99.3 -60.5 L 99.3 -60.5 L 99.3 -52.4 Z M 124 -41.1 L 124 -41.1 L 124 -41.1 Q 120.5 -41.1 117.9 -42.6 L 117.9 -42.6 L 117.9 -42.6 Q 115.3 -44.2 113.5 -46.7 L 113.5 -46.7 L 113.5 -46.7 Q 111.8 -49.3 111 -52.6 L 111 -52.6 L 111 -52.6 Q 110.1 -55.9 110.1 -59.5 L 110.1 -59.5 L 110.1 -59.5 Q 110.1 -64.4 111.5 -67.7 L 111.5 -67.7 L 111.5 -67.7 Q 112.8 -71 114.9 -73.1 L 114.9 -73.1 L 114.9 -73.1 Q 117 -75.2 119.6 -76.1 L 119.6 -76.1 L 119.6 -76.1 Q 122.2 -77 124.7 -77 L 124.7 -77 L 124.7 -77 Q 126.6 -77 128.4 -76.5 L 128.4 -76.5 L 128.4 -76.5 Q 130.1 -76.1 131.6 -75.3 L 131.6 -75.3 L 131.6 -68.7 L 131.6 -68.7 Q 130.6 -69.8 129.2 -70.5 L 129.2 -70.5 L 129.2 -70.5 Q 127.9 -71.2 126.3 -71.2 L 126.3 -71.2 L 126.3 -71.2 Q 124.5 -71.2 122.9 -70.2 L 122.9 -70.2 L 122.9 -70.2 Q 121.4 -69.2 120.3 -67.6 L 120.3 -67.6 L 120.3 -67.6 Q 119.3 -66 118.7 -63.8 L 118.7 -63.8 L 118.7 -63.8 Q 118.1 -61.6 118.1 -59.2 L 118.1 -59.2 L 118.1 -59.2 Q 118.1 -56.7 118.7 -54.4 L 118.7 -54.4 L 118.7 -54.4 Q 119.3 -52.2 120.4 -50.6 L 120.4 -50.6 L 120.4 -50.6 Q 121.5 -49 123 -48 L 123 -48 L 123 -48 Q 124.6 -47 126.5 -47 L 126.5 -47 L 126.5 -47 Q 128 -47 129.3 -47.7 L 129.3 -47.7 L 129.3 -47.7 Q 130.5 -48.4 131.6 -49.4 L 131.6 -49.4 L 131.6 -42.9 L 131.6 -42.9 Q 130.1 -42.2 128.1 -41.6 L 128.1 -41.6 L 128.1 -41.6 Q 126.2 -41.1 124 -41.1 Z M 135 -76.7 L 141.7 -76.7 L 141.6 -41.4 L 141.6 -41.4 Q 141.4 -37.6 140.1 -34.9 L 140.1 -34.9 L 140.1 -34.9 Q 138.8 -32.2 136.8 -30.5 L 136.8 -30.5 L 136.8 -30.5 Q 134.8 -28.7 132.2 -28 L 132.2 -28 L 132.2 -28 Q 129.6 -27.2 126.6 -27.2 L 126.6 -27.2 L 126.6 -27.2 Q 123.1 -27.2 119.7 -28.4 L 119.7 -28.4 L 119.7 -28.4 Q 116.3 -29.7 114 -32.5 L 114 -32.5 L 118.4 -36.9 L 118.4 -36.9 Q 119 -35.8 120 -35.1 L 120 -35.1 L 120 -35.1 Q 121 -34.4 122 -34 L 122 -34 L 122 -34 Q 123 -33.7 124 -33.5 L 124 -33.5 L 124 -33.5 Q 125.1 -33.4 125.9 -33.4 L 125.9 -33.4 L 125.9 -33.4 Q 129.8 -33.4 132 -35.6 L 132 -35.6 L 132 -35.6 Q 134.1 -37.9 134.1 -43.3 L 134.1 -43.3 L 134.1 -73.1 L 135 -76.7 Z M 170.3 -71.1 L 170.3 -77 L 170.3 -77 Q 173.6 -76.7 176.4 -75.2 L 176.4 -75.2 L 176.4 -75.2 Q 179.1 -73.7 181 -71.3 L 181 -71.3 L 181 -71.3 Q 183 -68.9 184 -65.9 L 184 -65.9 L 184 -65.9 Q 185 -62.8 185 -59.5 L 185 -59.5 L 185 -59.5 Q 185 -58 184.8 -56.5 L 184.8 -56.5 L 163.4 -56.5 L 163.4 -62 L 177.8 -62 L 177.8 -62 Q 177.8 -63.6 177.3 -65.1 L 177.3 -65.1 L 177.3 -65.1 Q 176.8 -66.6 175.7 -67.9 L 175.7 -67.9 L 175.7 -67.9 Q 174.7 -69.2 173.3 -70 L 173.3 -70 L 173.3 -70 Q 172 -70.9 170.3 -71.1 L 170.3 -71.1 Z M 170 -47.3 L 170 -47.3 L 170 -47.3 Q 170.7 -47.3 171.7 -47.4 L 171.7 -47.4 L 171.7 -47.4 Q 172.8 -47.6 173.9 -48 L 173.9 -48 L 173.9 -48 Q 175.1 -48.4 176.2 -49 L 176.2 -49 L 176.2 -49 Q 177.4 -49.7 178.3 -50.5 L 178.3 -50.5 L 181 -46.4 L 181 -46.4 Q 179 -43.8 176.2 -42.5 L 176.2 -42.5 L 176.2 -42.5 Q 173.5 -41.2 169.2 -41.2 L 169.2 -41.2 L 169.2 -41.2 Q 165.8 -41.2 162.8 -42.6 L 162.8 -42.6 L 162.8 -42.6 Q 159.8 -44 157.6 -46.4 L 157.6 -46.4 L 157.6 -46.4 Q 155.5 -48.9 154.3 -52.1 L 154.3 -52.1 L 154.3 -52.1 Q 153 -55.4 153 -59.1 L 153 -59.1 L 153 -59.1 Q 153 -62.7 154.2 -65.9 L 154.2 -65.9 L 154.2 -65.9 Q 155.3 -69 157.3 -71.4 L 157.3 -71.4 L 157.3 -71.4 Q 159.3 -73.9 162 -75.4 L 162 -75.4 L 162 -75.4 Q 164.6 -76.9 167.7 -77 L 167.7 -77 L 167.7 -71 L 167.7 -71 Q 165.4 -70.6 163.9 -69.2 L 163.9 -69.2 L 163.9 -69.2 Q 162.4 -67.7 161.5 -65.9 L 161.5 -65.9 L 161.5 -65.9 Q 160.7 -64 160.4 -62.1 L 160.4 -62.1 L 160.4 -62.1 Q 160 -60.2 160 -58.8 L 160 -58.8 L 160 -58.8 Q 160 -56.4 160.6 -54.3 L 160.6 -54.3 L 160.6 -54.3 Q 161.2 -52.2 162.5 -50.6 L 162.5 -50.6 L 162.5 -50.6 Q 163.7 -49.1 165.5 -48.2 L 165.5 -48.2 L 165.5 -48.2 Q 167.4 -47.3 170 -47.3 Z M 194.6 -66.6 L 194.6 -66.6 L 194.6 -66.6 Q 194.6 -69 195.5 -70.9 L 195.5 -70.9 L 195.5 -70.9 Q 196.3 -72.8 197.9 -74.1 L 197.9 -74.1 L 197.9 -74.1 Q 199.5 -75.5 201.4 -76.3 L 201.4 -76.3 L 201.4 -76.3 Q 203.4 -77 205.5 -77.2 L 205.5 -77.2 L 205.5 -71 L 205.5 -71 Q 203.9 -70.7 203 -69.7 L 203 -69.7 L 203 -69.7 Q 202.1 -68.7 202.1 -66.9 L 202.1 -66.9 L 202.1 -66.9 Q 202.1 -65.4 203 -64.4 L 203 -64.4 L 203 -64.4 Q 204 -63.5 205.5 -62.9 L 205.5 -62.9 L 205.5 -56.2 L 205.5 -56.2 Q 204.5 -56.5 203.4 -56.9 L 203.4 -56.9 L 203.4 -56.9 Q 202.3 -57.3 201.2 -57.8 L 201.2 -57.8 L 201.2 -57.8 Q 197.9 -59.5 196.2 -61.5 L 196.2 -61.5 L 196.2 -61.5 Q 194.6 -63.4 194.6 -66.6 Z M 217.9 -74.4 L 215.5 -69.2 L 215.5 -69.2 Q 213.8 -70.1 211.9 -70.5 L 211.9 -70.5 L 211.9 -70.5 Q 210 -71 208.1 -71.1 L 208.1 -71.1 L 208.1 -77.3 L 208.1 -77.3 Q 210.9 -77.2 213.3 -76.5 L 213.3 -76.5 L 213.3 -76.5 Q 215.6 -75.9 217.9 -74.4 L 217.9 -74.4 Z M 194.7 -44.2 L 197.9 -49.3 L 197.9 -49.3 Q 199.1 -48.4 200.9 -47.7 L 200.9 -47.7 L 200.9 -47.7 Q 202.6 -46.9 205.2 -46.9 L 205.2 -46.9 L 205.5 -46.9 L 205.5 -41.1 L 205.5 -41.1 Q 204 -41.1 202.6 -41.2 L 202.6 -41.2 L 202.6 -41.2 Q 201.3 -41.3 200 -41.6 L 200 -41.6 L 200 -41.6 Q 198.8 -42 197.5 -42.6 L 197.5 -42.6 L 197.5 -42.6 Q 196.1 -43.2 194.7 -44.2 L 194.7 -44.2 Z M 208.1 -55.2 L 208.1 -61.9 L 208.1 -61.9 Q 210 -61.2 211.9 -60.5 L 211.9 -60.5 L 211.9 -60.5 Q 213.8 -59.7 215.4 -58.6 L 215.4 -58.6 L 215.4 -58.6 Q 217 -57.5 218 -55.8 L 218 -55.8 L 218 -55.8 Q 219.1 -54.2 219.1 -51.7 L 219.1 -51.7 L 219.1 -51.7 Q 219.1 -49.2 218.2 -47.4 L 218.2 -47.4 L 218.2 -47.4 Q 217.3 -45.6 215.9 -44.3 L 215.9 -44.3 L 215.9 -44.3 Q 214.4 -43 212.4 -42.2 L 212.4 -42.2 L 212.4 -42.2 Q 210.4 -41.5 208.1 -41.2 L 208.1 -41.2 L 208.1 -47.2 L 208.1 -47.2 Q 210.2 -47.5 211.4 -48.5 L 211.4 -48.5 L 211.4 -48.5 Q 212.5 -49.5 212.5 -51.1 L 212.5 -51.1 L 212.5 -51.1 Q 212.5 -52.7 211.2 -53.6 L 211.2 -53.6 L 211.2 -53.6 Q 210 -54.5 208.1 -55.2 L 208.1 -55.2 Z M 277.6 -83.2 L 272.4 -78.6 L 272.4 -78.6 Q 270.9 -80.4 269 -81.2 L 269 -81.2 L 269 -81.2 Q 267 -82 265 -82 L 265 -82 L 264.7 -82 L 264.7 -88.2 L 264.8 -88.2 L 264.8 -88.2 Q 268.5 -88.2 271.8 -87 L 271.8 -87 L 271.8 -87 Q 275 -85.7 277.6 -83.2 L 277.6 -83.2 Z M 245.6 -64.7 L 245.6 -64.7 L 245.6 -64.7 Q 245.6 -70 246.8 -74.2 L 246.8 -74.2 L 246.8 -74.2 Q 248.1 -78.4 250.3 -81.3 L 250.3 -81.3 L 250.3 -81.3 Q 252.5 -84.2 255.5 -85.9 L 255.5 -85.9 L 255.5 -85.9 Q 258.6 -87.5 262.1 -88 L 262.1 -88 L 262.1 -81.7 L 262.1 -81.7 Q 260.3 -81.2 258.7 -80 L 258.7 -80 L 258.7 -80 Q 257.1 -78.9 255.9 -76.8 L 255.9 -76.8 L 255.9 -76.8 Q 254.6 -74.7 254 -71.7 L 254 -71.7 L 254 -71.7 Q 253.3 -68.7 253.2 -64.7 L 253.2 -64.7 L 253.2 -64.7 Q 253.3 -60.6 254 -57.5 L 254 -57.5 L 254 -57.5 Q 254.6 -54.5 255.9 -52.3 L 255.9 -52.3 L 255.9 -52.3 Q 257.1 -50 258.7 -48.7 L 258.7 -48.7 L 258.7 -48.7 Q 260.3 -47.4 262.1 -46.9 L 262.1 -46.9 L 262.1 -41.2 L 262.1 -41.2 Q 258.6 -41.7 255.5 -43.4 L 255.5 -43.4 L 255.5 -43.4 Q 252.5 -45.1 250.3 -48 L 250.3 -48 L 250.3 -48 Q 248.1 -51 246.8 -55.1 L 246.8 -55.1 L 246.8 -55.1 Q 245.6 -59.3 245.6 -64.7 Z M 264.7 -65.2 L 280 -65.2 L 280 -47.4 L 280 -47.4 Q 278.5 -45.5 276.7 -44.4 L 276.7 -44.4 L 276.7 -44.4 Q 275 -43.2 273 -42.5 L 273 -42.5 L 273 -42.5 Q 271 -41.7 268.9 -41.4 L 268.9 -41.4 L 268.9 -41.4 Q 266.8 -41.1 264.8 -41.1 L 264.8 -41.1 L 264.7 -41.1 L 264.7 -46.6 L 264.7 -46.6 Q 265.5 -46.6 266.5 -46.7 L 266.5 -46.7 L 266.5 -46.7 Q 267.6 -46.8 268.8 -47 L 268.8 -47 L 268.8 -47 Q 270 -47.2 271 -47.6 L 271 -47.6 L 271 -47.6 Q 272 -48 272.5 -48.7 L 272.5 -48.7 L 272.5 -60 L 264.7 -60 L 264.7 -65.2 Z M 296.5 -52 L 296.5 -52 L 296.5 -52 Q 296.5 -49.2 297.7 -47.9 L 297.7 -47.9 L 297.7 -47.9 Q 298.8 -46.5 301 -46.2 L 301 -46.2 L 301 -41.2 L 301 -41.2 Q 300.8 -41.1 300.2 -41.1 L 300.2 -41.1 L 300.2 -41.1 Q 298.1 -41.1 296.1 -41.7 L 296.1 -41.7 L 296.1 -41.7 Q 294.1 -42.2 292.6 -43.5 L 292.6 -43.5 L 292.6 -43.5 Q 291.1 -44.7 290.3 -46.8 L 290.3 -46.8 L 290.3 -46.8 Q 289.5 -48.9 289.5 -51.9 L 289.5 -51.9 L 289.5 -51.9 Q 289.5 -54.7 290.7 -56.8 L 290.7 -56.8 L 290.7 -56.8 Q 291.9 -58.9 293.8 -60.3 L 293.8 -60.3 L 293.8 -60.3 Q 295.7 -61.6 298.1 -62.3 L 298.1 -62.3 L 298.1 -62.3 Q 300.6 -62.9 303.1 -62.9 L 303.1 -62.9 L 305.8 -62.9 L 305.8 -58.5 L 304.5 -58.5 L 304.5 -58.5 Q 303.2 -58.5 301.8 -58.2 L 301.8 -58.2 L 301.8 -58.2 Q 300.5 -58 299.3 -57.3 L 299.3 -57.3 L 299.3 -57.3 Q 298.1 -56.6 297.3 -55.3 L 297.3 -55.3 L 297.3 -55.3 Q 296.5 -54 296.5 -52 Z M 316 -52.4 L 316 -51.9 L 316 -51.9 Q 316 -51.4 316 -50.4 L 316 -50.4 L 316 -50.4 Q 316.1 -49.4 316.3 -48.4 L 316.3 -48.4 L 316.3 -48.4 Q 316.5 -47.4 316.9 -46.6 L 316.9 -46.6 L 316.9 -46.6 Q 317.3 -45.8 318 -45.5 L 318 -45.5 L 316 -41.4 L 316 -41.4 Q 315.1 -41.4 314.2 -41.7 L 314.2 -41.7 L 314.2 -41.7 Q 313.3 -42.1 312.5 -42.8 L 312.5 -42.8 L 312.5 -42.8 Q 311.6 -43.5 311 -44.3 L 311 -44.3 L 311 -44.3 Q 310.5 -45.2 310.1 -46.2 L 310.1 -46.2 L 310.1 -46.2 Q 309.5 -44.6 307.7 -43.4 L 307.7 -43.4 L 307.7 -43.4 Q 305.8 -42.2 303.6 -41.6 L 303.6 -41.6 L 303.6 -46.4 L 303.6 -46.4 Q 305.1 -46.7 306.3 -47.6 L 306.3 -47.6 L 306.3 -47.6 Q 307.5 -48.5 308.4 -49.7 L 308.4 -49.7 L 308.4 -62.9 L 308.4 -62.9 Q 308.4 -66 308.1 -67.8 L 308.1 -67.8 L 308.1 -67.8 Q 307.8 -69.6 307 -70.4 L 307 -70.4 L 307 -70.4 Q 306.3 -71.3 305.2 -71.5 L 305.2 -71.5 L 305.2 -71.5 Q 304.1 -71.7 302.6 -71.7 L 302.6 -71.7 L 302.6 -71.7 Q 301.2 -71.7 300 -71.4 L 300 -71.4 L 300 -71.4 Q 298.8 -71 297.7 -70.6 L 297.7 -70.6 L 297.7 -70.6 Q 296.7 -70.1 295.9 -69.5 L 295.9 -69.5 L 295.9 -69.5 Q 295.1 -69 294.8 -68.7 L 294.8 -68.7 L 292 -73 L 292 -73 Q 292.6 -73.7 293.8 -74.4 L 293.8 -74.4 L 293.8 -74.4 Q 295.1 -75.1 296.7 -75.7 L 296.7 -75.7 L 296.7 -75.7 Q 298.3 -76.2 300.2 -76.6 L 300.2 -76.6 L 300.2 -76.6 Q 302.1 -76.9 304.2 -76.9 L 304.2 -76.9 L 304.2 -76.9 Q 306.1 -76.9 307.9 -76.5 L 307.9 -76.5 L 307.9 -76.5 Q 309.6 -76.2 311.1 -75.3 L 311.1 -75.3 L 311.1 -75.3 Q 312.6 -74.4 313.7 -72.9 L 313.7 -72.9 L 313.7 -72.9 Q 314.8 -71.5 315.2 -69.3 L 315.2 -69.3 L 315.2 -69.3 Q 315.6 -67.1 315.8 -64.9 L 315.8 -64.9 L 315.8 -64.9 Q 316 -62.7 316 -60.5 L 316 -60.5 L 316 -52.4 Z M 335.4 -90 L 335.4 -52.2 L 335.4 -52.2 Q 335.4 -50 336 -48.8 L 336 -48.8 L 336 -48.8 Q 336.5 -47.6 337.5 -47 L 337.5 -47 L 337.5 -47 Q 338.5 -46.4 339.8 -46.2 L 339.8 -46.2 L 339.8 -46.2 Q 341.1 -46 342.6 -46 L 342.6 -46 L 342.6 -41.4 L 342.6 -41.4 Q 341.8 -41.3 340.9 -41.2 L 340.9 -41.2 L 340.9 -41.2 Q 340.2 -41.2 339.3 -41.1 L 339.3 -41.1 L 339.3 -41.1 Q 338.3 -41.1 337.4 -41.1 L 337.4 -41.1 L 337.4 -41.1 Q 336.5 -41.1 335.5 -41.2 L 335.5 -41.2 L 335.5 -41.2 Q 334.6 -41.2 333.8 -41.4 L 333.8 -41.4 L 333.8 -41.4 Q 331.7 -41.8 330.5 -43.2 L 330.5 -43.2 L 330.5 -43.2 Q 329.3 -44.7 328.7 -46.4 L 328.7 -46.4 L 328.7 -46.4 Q 328.1 -48.2 327.9 -49.9 L 327.9 -49.9 L 327.9 -49.9 Q 327.8 -51.6 327.8 -52.5 L 327.8 -52.5 L 327.8 -53.3 L 327.8 -90 L 335.4 -90 Z M 358.1 -90 L 358.1 -52.2 L 358.1 -52.2 Q 358.1 -50 358.6 -48.8 L 358.6 -48.8 L 358.6 -48.8 Q 359.2 -47.6 360.2 -47 L 360.2 -47 L 360.2 -47 Q 361.2 -46.4 362.5 -46.2 L 362.5 -46.2 L 362.5 -46.2 Q 363.8 -46 365.3 -46 L 365.3 -46 L 365.3 -41.4 L 365.3 -41.4 Q 364.5 -41.3 363.6 -41.2 L 363.6 -41.2 L 363.6 -41.2 Q 362.9 -41.2 362 -41.1 L 362 -41.1 L 362 -41.1 Q 361 -41.1 360.1 -41.1 L 360.1 -41.1 L 360.1 -41.1 Q 359.1 -41.1 358.2 -41.2 L 358.2 -41.2 L 358.2 -41.2 Q 357.3 -41.2 356.5 -41.4 L 356.5 -41.4 L 356.5 -41.4 Q 354.4 -41.8 353.2 -43.2 L 353.2 -43.2 L 353.2 -43.2 Q 352 -44.7 351.4 -46.4 L 351.4 -46.4 L 351.4 -46.4 Q 350.8 -48.2 350.6 -49.9 L 350.6 -49.9 L 350.6 -49.9 Q 350.5 -51.6 350.5 -52.5 L 350.5 -52.5 L 350.5 -53.3 L 350.5 -90 L 358.1 -90 Z M 389.6 -71.1 L 389.6 -77 L 389.6 -77 Q 393 -76.7 395.7 -75.2 L 395.7 -75.2 L 395.7 -75.2 Q 398.5 -73.7 400.4 -71.3 L 400.4 -71.3 L 400.4 -71.3 Q 402.3 -68.9 403.4 -65.9 L 403.4 -65.9 L 403.4 -65.9 Q 404.4 -62.8 404.4 -59.5 L 404.4 -59.5 L 404.4 -59.5 Q 404.4 -58 404.2 -56.5 L 404.2 -56.5 L 382.8 -56.5 L 382.8 -62 L 397.2 -62 L 397.2 -62 Q 397.2 -63.6 396.7 -65.1 L 396.7 -65.1 L 396.7 -65.1 Q 396.1 -66.6 395.1 -67.9 L 395.1 -67.9 L 395.1 -67.9 Q 394.1 -69.2 392.7 -70 L 392.7 -70 L 392.7 -70 Q 391.3 -70.9 389.6 -71.1 L 389.6 -71.1 Z M 389.4 -47.3 L 389.4 -47.3 L 389.4 -47.3 Q 390.1 -47.3 391.1 -47.4 L 391.1 -47.4 L 391.1 -47.4 Q 392.1 -47.6 393.3 -48 L 393.3 -48 L 393.3 -48 Q 394.5 -48.4 395.6 -49 L 395.6 -49 L 395.6 -49 Q 396.8 -49.7 397.6 -50.5 L 397.6 -50.5 L 400.4 -46.4 L 400.4 -46.4 Q 398.3 -43.8 395.6 -42.5 L 395.6 -42.5 L 395.6 -42.5 Q 392.8 -41.2 388.6 -41.2 L 388.6 -41.2 L 388.6 -41.2 Q 385.1 -41.2 382.1 -42.6 L 382.1 -42.6 L 382.1 -42.6 Q 379.1 -44 377 -46.4 L 377 -46.4 L 377 -46.4 Q 374.9 -48.9 373.6 -52.1 L 373.6 -52.1 L 373.6 -52.1 Q 372.4 -55.4 372.4 -59.1 L 372.4 -59.1 L 372.4 -59.1 Q 372.4 -62.7 373.5 -65.9 L 373.5 -65.9 L 373.5 -65.9 Q 374.7 -69 376.7 -71.4 L 376.7 -71.4 L 376.7 -71.4 Q 378.7 -73.9 381.4 -75.4 L 381.4 -75.4 L 381.4 -75.4 Q 384 -76.9 387.1 -77 L 387.1 -77 L 387.1 -71 L 387.1 -71 Q 384.8 -70.6 383.3 -69.2 L 383.3 -69.2 L 383.3 -69.2 Q 381.8 -67.7 380.9 -65.9 L 380.9 -65.9 L 380.9 -65.9 Q 380.1 -64 379.7 -62.1 L 379.7 -62.1 L 379.7 -62.1 Q 379.4 -60.2 379.4 -58.8 L 379.4 -58.8 L 379.4 -58.8 Q 379.4 -56.4 380 -54.3 L 380 -54.3 L 380 -54.3 Q 380.6 -52.2 381.8 -50.6 L 381.8 -50.6 L 381.8 -50.6 Q 383.1 -49.1 384.9 -48.2 L 384.9 -48.2 L 384.9 -48.2 Q 386.8 -47.3 389.4 -47.3 Z M 414.8 -76.7 L 421.5 -76.7 L 422.3 -73 L 422.3 -53.9 L 422.3 -53.8 L 422.3 -41.4 L 414.8 -41.4 L 414.8 -76.7 Z M 424.9 -68.7 L 424.9 -75.1 L 424.9 -75.1 Q 426.5 -76 428.6 -76.4 L 428.6 -76.4 L 428.6 -76.4 Q 430.8 -76.9 434.6 -76.9 L 434.6 -76.9 L 434.6 -69 L 434.6 -69 Q 432.8 -69.5 430.3 -69.6 L 430.3 -69.6 L 430.3 -69.6 Q 429 -69.6 427.5 -69.4 L 427.5 -69.4 L 427.5 -69.4 Q 426.1 -69.2 424.9 -68.7 L 424.9 -68.7 Z M 469 -76.7 L 476.6 -76.7 L 476.6 -76.7 Q 473.2 -67.5 470.5 -60.4 L 470.5 -60.4 L 470.5 -60.4 Q 467.8 -53.3 465.8 -47.9 L 465.8 -47.9 L 465.8 -47.9 Q 463.8 -42.6 462.3 -38.9 L 462.3 -38.9 L 462.3 -38.9 Q 460.8 -35.2 459.5 -32.8 L 459.5 -32.8 L 459.5 -32.8 Q 458.2 -30.3 457.1 -28.9 L 457.1 -28.9 L 457.1 -28.9 Q 456 -27.5 454.8 -26.7 L 454.8 -26.7 L 454.8 -26.7 Q 453.6 -26 452.2 -25.8 L 452.2 -25.8 L 452.2 -25.8 Q 450.8 -25.7 449 -25.7 L 449 -25.7 L 449 -25.7 Q 448.4 -25.7 447.6 -25.8 L 447.6 -25.8 L 447.6 -25.8 Q 446.9 -26 446.2 -26.2 L 446.2 -26.2 L 446.2 -26.2 Q 445.5 -26.4 444.9 -26.6 L 444.9 -26.6 L 444.9 -26.6 Q 444.3 -26.9 444.1 -26.9 L 444.1 -26.9 L 444.1 -26.9 Q 444.4 -28 444.6 -29 L 444.6 -29 L 444.6 -29 Q 444.8 -29.9 445 -30.7 L 445 -30.7 L 445 -30.7 Q 445.3 -31.5 445.4 -31.8 L 445.4 -31.8 L 445.4 -31.8 Q 445.9 -31.8 446.9 -31.5 L 446.9 -31.5 L 446.9 -31.5 Q 448 -31.2 448.5 -31.2 L 448.5 -31.2 L 448.5 -31.2 Q 449.5 -31.2 450.2 -31.3 L 450.2 -31.3 L 450.2 -31.3 Q 451 -31.4 451.6 -31.8 L 451.6 -31.8 L 451.6 -31.8 Q 452.3 -32.3 452.8 -33.2 L 452.8 -33.2 L 452.8 -33.2 Q 453.4 -34.1 454.1 -35.8 L 454.1 -35.8 L 456.5 -41.4 L 469 -76.7 Z M 457.7 -50.9 L 455.1 -44.7 L 442 -76.7 L 449.6 -76.7 L 458.6 -53 L 457.7 -50.9 Z" fill="url(#editing-outline-gradient)"></path></g></g><style>text {
  font-size: 64px;
  font-family: Arial Black;
  dominant-baseline: central;
  text-anchor: middle;
}</style></svg>