<svg width="683px" height="131.6px" xmlns="http://www.w3.org/2000/svg" viewBox="-91.48593749999998 9.200000000000003 682.971875 131.6" style="background: rgba(0, 0, 0, 0)" preserveAspectRatio="xMidYMid"><defs><linearGradient id="editing-outline-gradient" x1="-0.37461970713939574" x2="1.3746197071393957" y1="0.015190379753662941" y2="0.984809620246337"><stop offset="0" stop-color="#ee4208"></stop><stop offset="1" stop-color="#4139ff"></stop></linearGradient><filter id="editing-outline" x="-100%" y="-100%" width="300%" height="300%"><feMorphology in="SourceGraphic" operator="dilate" radius="1" result="outline"></feMorphology><feComposite operator="out" in="outline" in2="SourceAlpha"></feComposite></filter></defs><g filter="url(#editing-outline)"><g transform="matrix(1.3,0,0,1.8,-64,205.4)"><path d="M -9.5 -101.1 L -9.5 -55 L -17.2 -55 L -17.2 -101.1 L -9.5 -101.1 Z M 1.6 -90.3 L 8.4 -90.3 L 9.2 -86.6 L 9.2 -55 L 1.6 -55 L 1.6 -90.3 Z M 37.9 -90.6 L 37.9 -90.6 L 37.9 -90.6 Q 40 -90.6 41.9 -89.8 L 41.9 -89.8 L 41.9 -89.8 Q 43.8 -89 45.2 -87.4 L 45.2 -87.4 L 45.2 -87.4 Q 46.6 -85.8 47.4 -83.7 L 47.4 -83.7 L 47.4 -83.7 Q 48.2 -81.5 48.2 -79 L 48.2 -79 L 48.2 -55 L 40.7 -55 L 40.7 -74.2 L 40.7 -74.2 Q 40.7 -76.3 40.6 -78.2 L 40.6 -78.2 L 40.6 -78.2 Q 40.6 -80.1 40.2 -81.6 L 40.2 -81.6 L 40.2 -81.6 Q 39.8 -83.1 39 -84 L 39 -84 L 39 -84 Q 38.2 -84.8 36.4 -84.8 L 36.4 -84.8 L 36.4 -84.8 Q 36 -84.8 34.5 -84.6 L 34.5 -84.6 L 34.5 -84.6 Q 33.1 -84.5 31.2 -83.6 L 31.2 -83.6 L 31.2 -88.5 L 31.2 -88.5 Q 32.9 -89.5 34.7 -90.1 L 34.7 -90.1 L 34.7 -90.1 Q 36.4 -90.6 37.9 -90.6 Z M 27.1 -85.8 L 27.1 -85.8 L 27.1 -85.8 Q 27.8 -84.7 28.2 -83.4 L 28.2 -83.4 L 28.2 -83.4 Q 28.5 -82.1 28.6 -80.8 L 28.6 -80.8 L 28.6 -80.8 Q 28.7 -79.4 28.7 -77.9 L 28.7 -77.9 L 28.7 -77.9 Q 28.7 -76.5 28.7 -74.8 L 28.7 -74.8 L 28.7 -55 L 21.1 -55 L 21.1 -74.2 L 21.1 -74.2 Q 21.1 -76.3 21.1 -78.2 L 21.1 -78.2 L 21.1 -78.2 Q 21.1 -80.1 20.7 -81.6 L 20.7 -81.6 L 20.7 -81.6 Q 20.3 -83.1 19.5 -84 L 19.5 -84 L 19.5 -84 Q 18.6 -84.8 16.9 -84.8 L 16.9 -84.8 L 16.9 -84.8 Q 16.2 -84.8 14.7 -84.5 L 14.7 -84.5 L 14.7 -84.5 Q 13.2 -84.3 11.8 -83.6 L 11.8 -83.6 L 11.8 -88.5 L 11.8 -88.5 Q 13.3 -89.4 15 -90 L 15 -90 L 15 -90 Q 16.7 -90.5 18.4 -90.5 L 18.4 -90.5 L 18.4 -90.5 Q 21.3 -90.5 23.2 -89.3 L 23.2 -89.3 L 23.2 -89.3 Q 25.2 -88.1 27.1 -85.8 Z M 65 -65.6 L 65 -65.6 L 65 -65.6 Q 65 -62.8 66.2 -61.5 L 66.2 -61.5 L 66.2 -61.5 Q 67.3 -60.1 69.5 -59.8 L 69.5 -59.8 L 69.5 -54.8 L 69.5 -54.8 Q 69.3 -54.7 68.7 -54.7 L 68.7 -54.7 L 68.7 -54.7 Q 66.6 -54.7 64.6 -55.3 L 64.6 -55.3 L 64.6 -55.3 Q 62.7 -55.8 61.2 -57.1 L 61.2 -57.1 L 61.2 -57.1 Q 59.7 -58.3 58.8 -60.4 L 58.8 -60.4 L 58.8 -60.4 Q 58 -62.5 58 -65.5 L 58 -65.5 L 58 -65.5 Q 58 -68.3 59.2 -70.4 L 59.2 -70.4 L 59.2 -70.4 Q 60.4 -72.5 62.3 -73.9 L 62.3 -73.9 L 62.3 -73.9 Q 64.2 -75.2 66.7 -75.9 L 66.7 -75.9 L 66.7 -75.9 Q 69.1 -76.5 71.6 -76.5 L 71.6 -76.5 L 74.3 -76.5 L 74.3 -72.1 L 73 -72.1 L 73 -72.1 Q 71.7 -72.1 70.3 -71.8 L 70.3 -71.8 L 70.3 -71.8 Q 69 -71.6 67.8 -70.9 L 67.8 -70.9 L 67.8 -70.9 Q 66.6 -70.2 65.8 -68.9 L 65.8 -68.9 L 65.8 -68.9 Q 65 -67.6 65 -65.6 Z M 84.5 -66 L 84.5 -65.5 L 84.5 -65.5 Q 84.5 -65 84.5 -64 L 84.5 -64 L 84.5 -64 Q 84.6 -63 84.8 -62 L 84.8 -62 L 84.8 -62 Q 85 -61 85.4 -60.2 L 85.4 -60.2 L 85.4 -60.2 Q 85.8 -59.4 86.5 -59.1 L 86.5 -59.1 L 84.5 -55 L 84.5 -55 Q 83.7 -55 82.7 -55.3 L 82.7 -55.3 L 82.7 -55.3 Q 81.8 -55.7 81 -56.4 L 81 -56.4 L 81 -56.4 Q 80.2 -57.1 79.6 -57.9 L 79.6 -57.9 L 79.6 -57.9 Q 79 -58.8 78.7 -59.8 L 78.7 -59.8 L 78.7 -59.8 Q 78 -58.2 76.2 -57 L 76.2 -57 L 76.2 -57 Q 74.3 -55.8 72.1 -55.2 L 72.1 -55.2 L 72.1 -60 L 72.1 -60 Q 73.6 -60.3 74.8 -61.2 L 74.8 -61.2 L 74.8 -61.2 Q 76 -62.1 76.9 -63.3 L 76.9 -63.3 L 76.9 -76.5 L 76.9 -76.5 Q 76.9 -79.6 76.6 -81.4 L 76.6 -81.4 L 76.6 -81.4 Q 76.3 -83.2 75.5 -84 L 75.5 -84 L 75.5 -84 Q 74.8 -84.9 73.7 -85.1 L 73.7 -85.1 L 73.7 -85.1 Q 72.6 -85.3 71.1 -85.3 L 71.1 -85.3 L 71.1 -85.3 Q 69.7 -85.3 68.5 -85 L 68.5 -85 L 68.5 -85 Q 67.3 -84.6 66.2 -84.2 L 66.2 -84.2 L 66.2 -84.2 Q 65.2 -83.7 64.4 -83.1 L 64.4 -83.1 L 64.4 -83.1 Q 63.7 -82.6 63.3 -82.3 L 63.3 -82.3 L 60.5 -86.6 L 60.5 -86.6 Q 61.1 -87.3 62.3 -88 L 62.3 -88 L 62.3 -88 Q 63.6 -88.7 65.2 -89.3 L 65.2 -89.3 L 65.2 -89.3 Q 66.8 -89.8 68.7 -90.2 L 68.7 -90.2 L 68.7 -90.2 Q 70.7 -90.5 72.7 -90.5 L 72.7 -90.5 L 72.7 -90.5 Q 74.6 -90.5 76.4 -90.1 L 76.4 -90.1 L 76.4 -90.1 Q 78.2 -89.8 79.6 -88.9 L 79.6 -88.9 L 79.6 -88.9 Q 81.1 -88 82.2 -86.5 L 82.2 -86.5 L 82.2 -86.5 Q 83.3 -85.1 83.7 -82.9 L 83.7 -82.9 L 83.7 -82.9 Q 84.2 -80.7 84.3 -78.5 L 84.3 -78.5 L 84.3 -78.5 Q 84.5 -76.3 84.5 -74.1 L 84.5 -74.1 L 84.5 -66 Z M 109.2 -54.7 L 109.2 -54.7 L 109.2 -54.7 Q 105.7 -54.7 103.1 -56.2 L 103.1 -56.2 L 103.1 -56.2 Q 100.5 -57.8 98.7 -60.3 L 98.7 -60.3 L 98.7 -60.3 Q 97 -62.9 96.2 -66.2 L 96.2 -66.2 L 96.2 -66.2 Q 95.3 -69.5 95.3 -73.1 L 95.3 -73.1 L 95.3 -73.1 Q 95.3 -78 96.7 -81.3 L 96.7 -81.3 L 96.7 -81.3 Q 98 -84.6 100.1 -86.7 L 100.1 -86.7 L 100.1 -86.7 Q 102.2 -88.8 104.8 -89.7 L 104.8 -89.7 L 104.8 -89.7 Q 107.4 -90.6 109.9 -90.6 L 109.9 -90.6 L 109.9 -90.6 Q 111.8 -90.6 113.6 -90.1 L 113.6 -90.1 L 113.6 -90.1 Q 115.3 -89.7 116.8 -88.9 L 116.8 -88.9 L 116.8 -82.3 L 116.8 -82.3 Q 115.8 -83.4 114.4 -84.1 L 114.4 -84.1 L 114.4 -84.1 Q 113.1 -84.8 111.5 -84.8 L 111.5 -84.8 L 111.5 -84.8 Q 109.7 -84.8 108.1 -83.8 L 108.1 -83.8 L 108.1 -83.8 Q 106.6 -82.8 105.5 -81.2 L 105.5 -81.2 L 105.5 -81.2 Q 104.5 -79.6 103.9 -77.4 L 103.9 -77.4 L 103.9 -77.4 Q 103.3 -75.2 103.3 -72.8 L 103.3 -72.8 L 103.3 -72.8 Q 103.3 -70.3 103.9 -68 L 103.9 -68 L 103.9 -68 Q 104.5 -65.8 105.6 -64.2 L 105.6 -64.2 L 105.6 -64.2 Q 106.7 -62.6 108.2 -61.6 L 108.2 -61.6 L 108.2 -61.6 Q 109.8 -60.6 111.7 -60.6 L 111.7 -60.6 L 111.7 -60.6 Q 113.2 -60.6 114.5 -61.3 L 114.5 -61.3 L 114.5 -61.3 Q 115.7 -62 116.8 -63 L 116.8 -63 L 116.8 -56.5 L 116.8 -56.5 Q 115.3 -55.8 113.3 -55.2 L 113.3 -55.2 L 113.3 -55.2 Q 111.4 -54.7 109.2 -54.7 Z M 120.2 -90.3 L 126.9 -90.3 L 126.8 -55 L 126.8 -55 Q 126.6 -51.2 125.3 -48.5 L 125.3 -48.5 L 125.3 -48.5 Q 124 -45.8 122 -44.1 L 122 -44.1 L 122 -44.1 Q 120 -42.3 117.4 -41.6 L 117.4 -41.6 L 117.4 -41.6 Q 114.8 -40.8 111.8 -40.8 L 111.8 -40.8 L 111.8 -40.8 Q 108.3 -40.8 104.9 -42 L 104.9 -42 L 104.9 -42 Q 101.5 -43.3 99.2 -46.1 L 99.2 -46.1 L 103.6 -50.5 L 103.6 -50.5 Q 104.2 -49.4 105.2 -48.7 L 105.2 -48.7 L 105.2 -48.7 Q 106.2 -48 107.2 -47.6 L 107.2 -47.6 L 107.2 -47.6 Q 108.2 -47.3 109.2 -47.1 L 109.2 -47.1 L 109.2 -47.1 Q 110.3 -47 111.1 -47 L 111.1 -47 L 111.1 -47 Q 115 -47 117.2 -49.2 L 117.2 -49.2 L 117.2 -49.2 Q 119.3 -51.5 119.3 -56.9 L 119.3 -56.9 L 119.3 -86.7 L 120.2 -90.3 Z M 155.5 -84.7 L 155.5 -90.6 L 155.5 -90.6 Q 158.8 -90.3 161.6 -88.8 L 161.6 -88.8 L 161.6 -88.8 Q 164.3 -87.3 166.2 -84.9 L 166.2 -84.9 L 166.2 -84.9 Q 168.2 -82.5 169.2 -79.5 L 169.2 -79.5 L 169.2 -79.5 Q 170.2 -76.4 170.2 -73.1 L 170.2 -73.1 L 170.2 -73.1 Q 170.2 -71.6 170 -70.1 L 170 -70.1 L 148.6 -70.1 L 148.6 -75.6 L 163 -75.6 L 163 -75.6 Q 163 -77.2 162.5 -78.7 L 162.5 -78.7 L 162.5 -78.7 Q 162 -80.2 160.9 -81.5 L 160.9 -81.5 L 160.9 -81.5 Q 159.9 -82.8 158.5 -83.6 L 158.5 -83.6 L 158.5 -83.6 Q 157.2 -84.5 155.5 -84.7 L 155.5 -84.7 Z M 155.2 -60.9 L 155.2 -60.9 L 155.2 -60.9 Q 155.9 -60.9 156.9 -61 L 156.9 -61 L 156.9 -61 Q 158 -61.2 159.1 -61.6 L 159.1 -61.6 L 159.1 -61.6 Q 160.3 -62 161.4 -62.6 L 161.4 -62.6 L 161.4 -62.6 Q 162.6 -63.3 163.5 -64.1 L 163.5 -64.1 L 166.2 -60 L 166.2 -60 Q 164.2 -57.4 161.4 -56.1 L 161.4 -56.1 L 161.4 -56.1 Q 158.7 -54.8 154.4 -54.8 L 154.4 -54.8 L 154.4 -54.8 Q 151 -54.8 148 -56.2 L 148 -56.2 L 148 -56.2 Q 145 -57.6 142.8 -60 L 142.8 -60 L 142.8 -60 Q 140.7 -62.5 139.5 -65.7 L 139.5 -65.7 L 139.5 -65.7 Q 138.2 -69 138.2 -72.7 L 138.2 -72.7 L 138.2 -72.7 Q 138.2 -76.3 139.4 -79.5 L 139.4 -79.5 L 139.4 -79.5 Q 140.5 -82.6 142.5 -85 L 142.5 -85 L 142.5 -85 Q 144.5 -87.5 147.2 -89 L 147.2 -89 L 147.2 -89 Q 149.8 -90.5 152.9 -90.6 L 152.9 -90.6 L 152.9 -84.6 L 152.9 -84.6 Q 150.6 -84.2 149.1 -82.8 L 149.1 -82.8 L 149.1 -82.8 Q 147.6 -81.3 146.7 -79.5 L 146.7 -79.5 L 146.7 -79.5 Q 145.9 -77.6 145.6 -75.7 L 145.6 -75.7 L 145.6 -75.7 Q 145.2 -73.8 145.2 -72.4 L 145.2 -72.4 L 145.2 -72.4 Q 145.2 -70 145.8 -67.9 L 145.8 -67.9 L 145.8 -67.9 Q 146.4 -65.8 147.7 -64.2 L 147.7 -64.2 L 147.7 -64.2 Q 148.9 -62.7 150.7 -61.8 L 150.7 -61.8 L 150.7 -61.8 Q 152.6 -60.9 155.2 -60.9 Z M 179.8 -80.2 L 179.8 -80.2 L 179.8 -80.2 Q 179.8 -82.6 180.7 -84.5 L 180.7 -84.5 L 180.7 -84.5 Q 181.5 -86.4 183.1 -87.7 L 183.1 -87.7 L 183.1 -87.7 Q 184.7 -89.1 186.6 -89.9 L 186.6 -89.9 L 186.6 -89.9 Q 188.6 -90.6 190.7 -90.8 L 190.7 -90.8 L 190.7 -84.6 L 190.7 -84.6 Q 189.1 -84.3 188.2 -83.3 L 188.2 -83.3 L 188.2 -83.3 Q 187.3 -82.3 187.3 -80.5 L 187.3 -80.5 L 187.3 -80.5 Q 187.3 -79 188.2 -78 L 188.2 -78 L 188.2 -78 Q 189.2 -77.1 190.7 -76.5 L 190.7 -76.5 L 190.7 -69.8 L 190.7 -69.8 Q 189.7 -70.1 188.6 -70.5 L 188.6 -70.5 L 188.6 -70.5 Q 187.5 -70.9 186.4 -71.4 L 186.4 -71.4 L 186.4 -71.4 Q 183.1 -73.1 181.4 -75.1 L 181.4 -75.1 L 181.4 -75.1 Q 179.8 -77 179.8 -80.2 Z M 203.1 -88 L 200.7 -82.8 L 200.7 -82.8 Q 199 -83.7 197.1 -84.1 L 197.1 -84.1 L 197.1 -84.1 Q 195.2 -84.6 193.3 -84.7 L 193.3 -84.7 L 193.3 -90.9 L 193.3 -90.9 Q 196.1 -90.8 198.5 -90.1 L 198.5 -90.1 L 198.5 -90.1 Q 200.8 -89.5 203.1 -88 L 203.1 -88 Z M 179.9 -57.8 L 183.1 -62.9 L 183.1 -62.9 Q 184.3 -62 186.1 -61.3 L 186.1 -61.3 L 186.1 -61.3 Q 187.8 -60.5 190.4 -60.5 L 190.4 -60.5 L 190.7 -60.5 L 190.7 -54.7 L 190.7 -54.7 Q 189.2 -54.7 187.8 -54.8 L 187.8 -54.8 L 187.8 -54.8 Q 186.5 -54.9 185.2 -55.2 L 185.2 -55.2 L 185.2 -55.2 Q 184 -55.6 182.7 -56.2 L 182.7 -56.2 L 182.7 -56.2 Q 181.3 -56.8 179.9 -57.8 L 179.9 -57.8 Z M 193.3 -68.8 L 193.3 -75.5 L 193.3 -75.5 Q 195.2 -74.8 197.1 -74.1 L 197.1 -74.1 L 197.1 -74.1 Q 199 -73.3 200.6 -72.2 L 200.6 -72.2 L 200.6 -72.2 Q 202.2 -71.1 203.2 -69.4 L 203.2 -69.4 L 203.2 -69.4 Q 204.3 -67.8 204.3 -65.3 L 204.3 -65.3 L 204.3 -65.3 Q 204.3 -62.8 203.4 -61 L 203.4 -61 L 203.4 -61 Q 202.5 -59.2 201.1 -57.9 L 201.1 -57.9 L 201.1 -57.9 Q 199.6 -56.6 197.6 -55.8 L 197.6 -55.8 L 197.6 -55.8 Q 195.6 -55.1 193.3 -54.8 L 193.3 -54.8 L 193.3 -60.8 L 193.3 -60.8 Q 195.4 -61.1 196.6 -62.1 L 196.6 -62.1 L 196.6 -62.1 Q 197.7 -63.1 197.7 -64.7 L 197.7 -64.7 L 197.7 -64.7 Q 197.7 -66.3 196.4 -67.2 L 196.4 -67.2 L 196.4 -67.2 Q 195.2 -68.1 193.3 -68.8 L 193.3 -68.8 Z M 262.8 -96.8 L 257.6 -92.2 L 257.6 -92.2 Q 256.1 -94 254.2 -94.8 L 254.2 -94.8 L 254.2 -94.8 Q 252.2 -95.6 250.2 -95.6 L 250.2 -95.6 L 249.9 -95.6 L 249.9 -101.8 L 250 -101.8 L 250 -101.8 Q 253.7 -101.8 257 -100.6 L 257 -100.6 L 257 -100.6 Q 260.2 -99.3 262.8 -96.8 L 262.8 -96.8 Z M 230.8 -78.3 L 230.8 -78.3 L 230.8 -78.3 Q 230.8 -83.6 232 -87.8 L 232 -87.8 L 232 -87.8 Q 233.3 -92 235.5 -94.9 L 235.5 -94.9 L 235.5 -94.9 Q 237.7 -97.8 240.7 -99.5 L 240.7 -99.5 L 240.7 -99.5 Q 243.8 -101.1 247.3 -101.6 L 247.3 -101.6 L 247.3 -95.3 L 247.3 -95.3 Q 245.5 -94.8 243.9 -93.6 L 243.9 -93.6 L 243.9 -93.6 Q 242.3 -92.5 241.1 -90.4 L 241.1 -90.4 L 241.1 -90.4 Q 239.8 -88.3 239.2 -85.3 L 239.2 -85.3 L 239.2 -85.3 Q 238.5 -82.3 238.4 -78.3 L 238.4 -78.3 L 238.4 -78.3 Q 238.5 -74.2 239.2 -71.1 L 239.2 -71.1 L 239.2 -71.1 Q 239.8 -68.1 241.1 -65.9 L 241.1 -65.9 L 241.1 -65.9 Q 242.3 -63.6 243.9 -62.3 L 243.9 -62.3 L 243.9 -62.3 Q 245.5 -61 247.3 -60.5 L 247.3 -60.5 L 247.3 -54.8 L 247.3 -54.8 Q 243.8 -55.3 240.7 -57 L 240.7 -57 L 240.7 -57 Q 237.7 -58.7 235.5 -61.6 L 235.5 -61.6 L 235.5 -61.6 Q 233.3 -64.6 232 -68.7 L 232 -68.7 L 232 -68.7 Q 230.8 -72.9 230.8 -78.3 Z M 249.9 -78.8 L 265.2 -78.8 L 265.2 -61 L 265.2 -61 Q 263.7 -59.1 261.9 -58 L 261.9 -58 L 261.9 -58 Q 260.2 -56.8 258.2 -56.1 L 258.2 -56.1 L 258.2 -56.1 Q 256.2 -55.3 254.1 -55 L 254.1 -55 L 254.1 -55 Q 252 -54.7 250 -54.7 L 250 -54.7 L 249.9 -54.7 L 249.9 -60.2 L 249.9 -60.2 Q 250.7 -60.2 251.7 -60.3 L 251.7 -60.3 L 251.7 -60.3 Q 252.8 -60.4 254 -60.6 L 254 -60.6 L 254 -60.6 Q 255.2 -60.8 256.2 -61.2 L 256.2 -61.2 L 256.2 -61.2 Q 257.2 -61.6 257.7 -62.3 L 257.7 -62.3 L 257.7 -73.6 L 249.9 -73.6 L 249.9 -78.8 Z M 281.7 -65.6 L 281.7 -65.6 L 281.7 -65.6 Q 281.7 -62.8 282.9 -61.5 L 282.9 -61.5 L 282.9 -61.5 Q 284 -60.1 286.2 -59.8 L 286.2 -59.8 L 286.2 -54.8 L 286.2 -54.8 Q 286 -54.7 285.4 -54.7 L 285.4 -54.7 L 285.4 -54.7 Q 283.3 -54.7 281.3 -55.3 L 281.3 -55.3 L 281.3 -55.3 Q 279.3 -55.8 277.8 -57.1 L 277.8 -57.1 L 277.8 -57.1 Q 276.3 -58.3 275.5 -60.4 L 275.5 -60.4 L 275.5 -60.4 Q 274.7 -62.5 274.7 -65.5 L 274.7 -65.5 L 274.7 -65.5 Q 274.7 -68.3 275.9 -70.4 L 275.9 -70.4 L 275.9 -70.4 Q 277.1 -72.5 279 -73.9 L 279 -73.9 L 279 -73.9 Q 280.9 -75.2 283.3 -75.9 L 283.3 -75.9 L 283.3 -75.9 Q 285.8 -76.5 288.3 -76.5 L 288.3 -76.5 L 291 -76.5 L 291 -72.1 L 289.7 -72.1 L 289.7 -72.1 Q 288.4 -72.1 287 -71.8 L 287 -71.8 L 287 -71.8 Q 285.7 -71.6 284.5 -70.9 L 284.5 -70.9 L 284.5 -70.9 Q 283.3 -70.2 282.5 -68.9 L 282.5 -68.9 L 282.5 -68.9 Q 281.7 -67.6 281.7 -65.6 Z M 301.2 -66 L 301.2 -65.5 L 301.2 -65.5 Q 301.2 -65 301.2 -64 L 301.2 -64 L 301.2 -64 Q 301.3 -63 301.5 -62 L 301.5 -62 L 301.5 -62 Q 301.7 -61 302.1 -60.2 L 302.1 -60.2 L 302.1 -60.2 Q 302.5 -59.4 303.2 -59.1 L 303.2 -59.1 L 301.2 -55 L 301.2 -55 Q 300.3 -55 299.4 -55.3 L 299.4 -55.3 L 299.4 -55.3 Q 298.5 -55.7 297.7 -56.4 L 297.7 -56.4 L 297.7 -56.4 Q 296.8 -57.1 296.2 -57.9 L 296.2 -57.9 L 296.2 -57.9 Q 295.7 -58.8 295.3 -59.8 L 295.3 -59.8 L 295.3 -59.8 Q 294.7 -58.2 292.9 -57 L 292.9 -57 L 292.9 -57 Q 291 -55.8 288.8 -55.2 L 288.8 -55.2 L 288.8 -60 L 288.8 -60 Q 290.3 -60.3 291.5 -61.2 L 291.5 -61.2 L 291.5 -61.2 Q 292.7 -62.1 293.6 -63.3 L 293.6 -63.3 L 293.6 -76.5 L 293.6 -76.5 Q 293.6 -79.6 293.3 -81.4 L 293.3 -81.4 L 293.3 -81.4 Q 293 -83.2 292.2 -84 L 292.2 -84 L 292.2 -84 Q 291.5 -84.9 290.4 -85.1 L 290.4 -85.1 L 290.4 -85.1 Q 289.3 -85.3 287.8 -85.3 L 287.8 -85.3 L 287.8 -85.3 Q 286.4 -85.3 285.2 -85 L 285.2 -85 L 285.2 -85 Q 284 -84.6 282.9 -84.2 L 282.9 -84.2 L 282.9 -84.2 Q 281.9 -83.7 281.1 -83.1 L 281.1 -83.1 L 281.1 -83.1 Q 280.3 -82.6 280 -82.3 L 280 -82.3 L 277.2 -86.6 L 277.2 -86.6 Q 277.8 -87.3 279 -88 L 279 -88 L 279 -88 Q 280.3 -88.7 281.9 -89.3 L 281.9 -89.3 L 281.9 -89.3 Q 283.5 -89.8 285.4 -90.2 L 285.4 -90.2 L 285.4 -90.2 Q 287.3 -90.5 289.4 -90.5 L 289.4 -90.5 L 289.4 -90.5 Q 291.3 -90.5 293.1 -90.1 L 293.1 -90.1 L 293.1 -90.1 Q 294.8 -89.8 296.3 -88.9 L 296.3 -88.9 L 296.3 -88.9 Q 297.8 -88 298.9 -86.5 L 298.9 -86.5 L 298.9 -86.5 Q 300 -85.1 300.4 -82.9 L 300.4 -82.9 L 300.4 -82.9 Q 300.8 -80.7 301 -78.5 L 301 -78.5 L 301 -78.5 Q 301.2 -76.3 301.2 -74.1 L 301.2 -74.1 L 301.2 -66 Z M 320.6 -103.6 L 320.6 -65.8 L 320.6 -65.8 Q 320.6 -63.6 321.2 -62.4 L 321.2 -62.4 L 321.2 -62.4 Q 321.7 -61.2 322.7 -60.6 L 322.7 -60.6 L 322.7 -60.6 Q 323.7 -60 325 -59.8 L 325 -59.8 L 325 -59.8 Q 326.3 -59.6 327.8 -59.6 L 327.8 -59.6 L 327.8 -55 L 327.8 -55 Q 327 -54.9 326.1 -54.8 L 326.1 -54.8 L 326.1 -54.8 Q 325.4 -54.8 324.5 -54.7 L 324.5 -54.7 L 324.5 -54.7 Q 323.5 -54.7 322.6 -54.7 L 322.6 -54.7 L 322.6 -54.7 Q 321.7 -54.7 320.7 -54.8 L 320.7 -54.8 L 320.7 -54.8 Q 319.8 -54.8 319 -55 L 319 -55 L 319 -55 Q 316.9 -55.4 315.7 -56.8 L 315.7 -56.8 L 315.7 -56.8 Q 314.5 -58.3 313.9 -60 L 313.9 -60 L 313.9 -60 Q 313.3 -61.8 313.1 -63.5 L 313.1 -63.5 L 313.1 -63.5 Q 313 -65.2 313 -66.1 L 313 -66.1 L 313 -66.9 L 313 -103.6 L 320.6 -103.6 Z M 343.3 -103.6 L 343.3 -65.8 L 343.3 -65.8 Q 343.3 -63.6 343.8 -62.4 L 343.8 -62.4 L 343.8 -62.4 Q 344.4 -61.2 345.4 -60.6 L 345.4 -60.6 L 345.4 -60.6 Q 346.4 -60 347.7 -59.8 L 347.7 -59.8 L 347.7 -59.8 Q 349 -59.6 350.5 -59.6 L 350.5 -59.6 L 350.5 -55 L 350.5 -55 Q 349.7 -54.9 348.8 -54.8 L 348.8 -54.8 L 348.8 -54.8 Q 348.1 -54.8 347.2 -54.7 L 347.2 -54.7 L 347.2 -54.7 Q 346.2 -54.7 345.3 -54.7 L 345.3 -54.7 L 345.3 -54.7 Q 344.3 -54.7 343.4 -54.8 L 343.4 -54.8 L 343.4 -54.8 Q 342.5 -54.8 341.7 -55 L 341.7 -55 L 341.7 -55 Q 339.6 -55.4 338.4 -56.8 L 338.4 -56.8 L 338.4 -56.8 Q 337.2 -58.3 336.6 -60 L 336.6 -60 L 336.6 -60 Q 336 -61.8 335.8 -63.5 L 335.8 -63.5 L 335.8 -63.5 Q 335.7 -65.2 335.7 -66.1 L 335.7 -66.1 L 335.7 -66.9 L 335.7 -103.6 L 343.3 -103.6 Z M 374.8 -84.7 L 374.8 -90.6 L 374.8 -90.6 Q 378.2 -90.3 380.9 -88.8 L 380.9 -88.8 L 380.9 -88.8 Q 383.7 -87.3 385.6 -84.9 L 385.6 -84.9 L 385.6 -84.9 Q 387.5 -82.5 388.6 -79.5 L 388.6 -79.5 L 388.6 -79.5 Q 389.6 -76.4 389.6 -73.1 L 389.6 -73.1 L 389.6 -73.1 Q 389.6 -71.6 389.4 -70.1 L 389.4 -70.1 L 368 -70.1 L 368 -75.6 L 382.4 -75.6 L 382.4 -75.6 Q 382.4 -77.2 381.9 -78.7 L 381.9 -78.7 L 381.9 -78.7 Q 381.3 -80.2 380.3 -81.5 L 380.3 -81.5 L 380.3 -81.5 Q 379.3 -82.8 377.9 -83.6 L 377.9 -83.6 L 377.9 -83.6 Q 376.5 -84.5 374.8 -84.7 L 374.8 -84.7 Z M 374.6 -60.9 L 374.6 -60.9 L 374.6 -60.9 Q 375.3 -60.9 376.3 -61 L 376.3 -61 L 376.3 -61 Q 377.3 -61.2 378.5 -61.6 L 378.5 -61.6 L 378.5 -61.6 Q 379.7 -62 380.8 -62.6 L 380.8 -62.6 L 380.8 -62.6 Q 382 -63.3 382.8 -64.1 L 382.8 -64.1 L 385.6 -60 L 385.6 -60 Q 383.5 -57.4 380.8 -56.1 L 380.8 -56.1 L 380.8 -56.1 Q 378 -54.8 373.8 -54.8 L 373.8 -54.8 L 373.8 -54.8 Q 370.3 -54.8 367.3 -56.2 L 367.3 -56.2 L 367.3 -56.2 Q 364.3 -57.6 362.2 -60 L 362.2 -60 L 362.2 -60 Q 360.1 -62.5 358.8 -65.7 L 358.8 -65.7 L 358.8 -65.7 Q 357.6 -69 357.6 -72.7 L 357.6 -72.7 L 357.6 -72.7 Q 357.6 -76.3 358.7 -79.5 L 358.7 -79.5 L 358.7 -79.5 Q 359.9 -82.6 361.9 -85 L 361.9 -85 L 361.9 -85 Q 363.9 -87.5 366.6 -89 L 366.6 -89 L 366.6 -89 Q 369.2 -90.5 372.3 -90.6 L 372.3 -90.6 L 372.3 -84.6 L 372.3 -84.6 Q 370 -84.2 368.5 -82.8 L 368.5 -82.8 L 368.5 -82.8 Q 367 -81.3 366.1 -79.5 L 366.1 -79.5 L 366.1 -79.5 Q 365.3 -77.6 364.9 -75.7 L 364.9 -75.7 L 364.9 -75.7 Q 364.6 -73.8 364.6 -72.4 L 364.6 -72.4 L 364.6 -72.4 Q 364.6 -70 365.2 -67.9 L 365.2 -67.9 L 365.2 -67.9 Q 365.8 -65.8 367 -64.2 L 367 -64.2 L 367 -64.2 Q 368.3 -62.7 370.1 -61.8 L 370.1 -61.8 L 370.1 -61.8 Q 372 -60.9 374.6 -60.9 Z M 400 -90.3 L 406.7 -90.3 L 407.5 -86.6 L 407.5 -67.5 L 407.5 -67.4 L 407.5 -55 L 400 -55 L 400 -90.3 Z M 410.1 -82.3 L 410.1 -88.7 L 410.1 -88.7 Q 411.7 -89.6 413.8 -90 L 413.8 -90 L 413.8 -90 Q 416 -90.5 419.8 -90.5 L 419.8 -90.5 L 419.8 -82.6 L 419.8 -82.6 Q 418 -83.1 415.5 -83.2 L 415.5 -83.2 L 415.5 -83.2 Q 414.2 -83.2 412.7 -83 L 412.7 -83 L 412.7 -83 Q 411.3 -82.8 410.1 -82.3 L 410.1 -82.3 Z M 454.2 -90.3 L 461.8 -90.3 L 461.8 -90.3 Q 458.4 -81.1 455.7 -74 L 455.7 -74 L 455.7 -74 Q 453 -66.9 451 -61.5 L 451 -61.5 L 451 -61.5 Q 449 -56.2 447.5 -52.5 L 447.5 -52.5 L 447.5 -52.5 Q 446 -48.8 444.7 -46.4 L 444.7 -46.4 L 444.7 -46.4 Q 443.4 -43.9 442.3 -42.5 L 442.3 -42.5 L 442.3 -42.5 Q 441.2 -41.1 440 -40.3 L 440 -40.3 L 440 -40.3 Q 438.8 -39.6 437.4 -39.4 L 437.4 -39.4 L 437.4 -39.4 Q 436 -39.3 434.2 -39.3 L 434.2 -39.3 L 434.2 -39.3 Q 433.6 -39.3 432.8 -39.4 L 432.8 -39.4 L 432.8 -39.4 Q 432.1 -39.6 431.4 -39.8 L 431.4 -39.8 L 431.4 -39.8 Q 430.7 -40 430.1 -40.2 L 430.1 -40.2 L 430.1 -40.2 Q 429.5 -40.5 429.3 -40.5 L 429.3 -40.5 L 429.3 -40.5 Q 429.6 -41.6 429.8 -42.6 L 429.8 -42.6 L 429.8 -42.6 Q 430 -43.5 430.2 -44.3 L 430.2 -44.3 L 430.2 -44.3 Q 430.5 -45.1 430.6 -45.4 L 430.6 -45.4 L 430.6 -45.4 Q 431.1 -45.4 432.1 -45.1 L 432.1 -45.1 L 432.1 -45.1 Q 433.2 -44.8 433.7 -44.8 L 433.7 -44.8 L 433.7 -44.8 Q 434.7 -44.8 435.4 -44.9 L 435.4 -44.9 L 435.4 -44.9 Q 436.2 -45 436.8 -45.4 L 436.8 -45.4 L 436.8 -45.4 Q 437.5 -45.9 438 -46.8 L 438 -46.8 L 438 -46.8 Q 438.6 -47.7 439.3 -49.4 L 439.3 -49.4 L 441.7 -55 L 454.2 -90.3 Z M 442.9 -64.5 L 440.3 -58.3 L 427.2 -90.3 L 434.8 -90.3 L 443.8 -66.6 L 442.9 -64.5 Z" fill="url(#editing-outline-gradient)"></path></g></g><style>text {
  font-size: 64px;
  font-family: Arial Black;
  dominant-baseline: central;
  text-anchor: middle;
}</style></svg>